<svg id="Capa_3" data-name="Capa 3" xmlns="http://www.w3.org/2000/svg" viewBox="0 0 1591.6 394.53"><defs><style>.cls-1{fill:#f61e53;}.cls-2{fill:#171669;}</style></defs><path class="cls-1" d="M591,690.53l-26.58,63.78a6.42,6.42,0,0,1-2.12,3,5.27,5.27,0,0,1-3.19,1.06,4.92,4.92,0,0,1-3.9-1.48,5.89,5.89,0,0,1-1.42-3.72,6.25,6.25,0,0,1,.35-1.89l30-72.53a6.62,6.62,0,0,1,2.42-3.07,5.56,5.56,0,0,1,3.49-.94,5.62,5.62,0,0,1,3.3,1.07,6.08,6.08,0,0,1,2.25,2.94l29.64,71.47a6.26,6.26,0,0,1,.48,2.36,5.64,5.64,0,0,1-5.55,5.79,5.28,5.28,0,0,1-3.26-1.12,6.71,6.71,0,0,1-2.18-2.9l-26.81-63.43Zm-21.86,47,5.32-11.34H607.9l2,11.34Z" transform="translate(-138.7 -363.8)"/><path class="cls-1" d="M644.4,757.86a7.72,7.72,0,0,1-5-1.71,5.3,5.3,0,0,1-2.12-4.32V681.2a5.77,5.77,0,0,1,1.76-4.31,5.87,5.87,0,0,1,4.25-1.72h33.32a22.58,22.58,0,0,1,11.69,3.14,23.9,23.9,0,0,1,8.56,8.62,24.19,24.19,0,0,1,3.26,12.58,22.23,22.23,0,0,1-1.9,9,25.76,25.76,0,0,1-5.07,7.62,21.18,21.18,0,0,1-7.21,5l-1.3-2.24a19,19,0,0,1,6.38,3.72,18.32,18.32,0,0,1,4.31,5.66,17.85,17.85,0,0,1,1.71,7.39c.24,2.44.45,4.47.65,6.08a16.7,16.7,0,0,0,.89,4,4.45,4.45,0,0,0,2.12,2.37,5.19,5.19,0,0,1,2.67,3.53,5.3,5.3,0,0,1-3.67,6.09,7.42,7.42,0,0,1-3.25.12,10.92,10.92,0,0,1-2.84-.88,18,18,0,0,1-3.83-3.38,16,16,0,0,1-3.14-6.07,36.87,36.87,0,0,1-1.17-10.28,12.5,12.5,0,0,0-1-5.09,9.24,9.24,0,0,0-2.6-3.48,10.61,10.61,0,0,0-3.9-2,17.44,17.44,0,0,0-4.95-.66H648.06l1.65-2.36v28.23a6.51,6.51,0,0,1-1.41,4.32A4.82,4.82,0,0,1,644.4,757.86Zm3.78-42.17h28.23a8.9,8.9,0,0,0,5.26-2.19,15,15,0,0,0,4.13-5.61,19.25,19.25,0,0,0,1.6-8,13.88,13.88,0,0,0-3.37-9.51,10.31,10.31,0,0,0-8-3.84H648.42l1.29-3.07v34.73Z" transform="translate(-138.7 -363.8)"/><path class="cls-1" d="M717.88,686.51a6.12,6.12,0,0,1-4.26-1.6,5.34,5.34,0,0,1-1.77-4.19,5.05,5.05,0,0,1,1.77-4,6.25,6.25,0,0,1,4.26-1.54h53.74a5.9,5.9,0,0,1,4.19,1.6,5.78,5.78,0,0,1,0,8.21,6.06,6.06,0,0,1-4.19,1.53Zm26.8,71.35a6.17,6.17,0,0,1-4.54-1.71,5.82,5.82,0,0,1-1.71-4.32V681.08h12.63v70.75a5.66,5.66,0,0,1-1.83,4.32A6.46,6.46,0,0,1,744.68,757.86Z" transform="translate(-138.7 -363.8)"/><path class="cls-2" d="M1470.28,480.82c-11.45-10-26.85-15.08-45.79-15.08-16.29,0-30.53,4.31-42.31,12.82-12,8.63-19.29,20.08-21.79,34.05l-.81,4.52h29.1l.54-3.19c1.16-6.62,3.87-8.54,9.82-12.75l1.75-1.24c6.49-4.65,14.85-7,24.86-7,7.4,0,13.78,1.61,19,4.82s8.68,7.08,10.71,11.91a39.24,39.24,0,0,1,3.2,15.26v2.87H1414c-19.08,0-34.22,4.45-45,13.24-11,9-16.56,20.92-16.56,35.47,0,14.13,5.3,25.81,15.78,34.69,10.29,8.72,23.81,13.15,40.22,13.15a72.7,72.7,0,0,0,33.06-7.4,69.81,69.81,0,0,0,17-12l29.24,15.58V523.49C1487.77,505.32,1481.89,491,1470.28,480.82Zm-11.75,75.89a36.72,36.72,0,0,1-7.81,23.16c-5.26,6.86-11.5,11.68-18.55,14.32a58.64,58.64,0,0,1-20.5,4.13,39.51,39.51,0,0,1-17.8-3.82c-4.85-2.42-8.15-5.33-9.8-8.62a22.09,22.09,0,0,1-2.66-9.65,19.92,19.92,0,0,1,8.16-16.51c5.69-4.48,13.81-6.75,24.13-6.75h44.83Zm110.74-81.46c-5.32,2.75-11.77,6.19-16.07,10.25l-30.11-14.33V620.58h30.1v-72c0-16.32,5.09-29.06,12.94-37.84s18.59-13,31.87-13c8.18,0,20.83,2.55,20.83,2.55l2.44-29.78a73.19,73.19,0,0,0-19-2.71C1590,467.78,1578.91,470.3,1569.27,475.25ZM1287.16,620.58h30.12V469.28h-30.12ZM644.66,417.66l-21.53,48.08L573.92,575.65,553.8,620.57H587L608.86,571h97.85l21.85,49.54h33.2L670.91,417.66Zm-23.38,125v0h0l36.63-83,36.38,83.07Zm665.88-95.6h30.12V418.3h-30.12Zm437.05,140.61a45.42,45.42,0,0,1-11.15,5.77A33.09,33.09,0,0,1,1702,595.7c-6.93,0-12.31-2.13-16.44-6.52s-6.24-10.59-6.24-18.78V495.57h38.08l12.87-26.33h-51V423.49h-30.12V571.86c0,16.53,4.7,29.56,14,38.71s21.82,13.79,37.38,13.79c12.27,0,16.75-1.82,28-9.06l1.76-1.13V583.29Zm-499.89-18.47c-2.26,6.94-4.77,9.79-9.6,14.25a44.55,44.55,0,0,1-15.55,9.54,53.85,53.85,0,0,1-17.82,3,48.58,48.58,0,0,1-22.43-5,49.36,49.36,0,0,1-15.83-12.41,45.7,45.7,0,0,1-8.61-16.14,62.34,62.34,0,0,1-2.61-17.42,55.93,55.93,0,0,1,6.55-26.32,45,45,0,0,1,7.4-10.28h-34.77a76.15,76.15,0,0,0-4.91,12.17,84.39,84.39,0,0,0-3.52,24.43,83,83,0,0,0,6.12,32.07A74.48,74.48,0,0,0,1126,602.45a77.42,77.42,0,0,0,25.44,16.25,81.35,81.35,0,0,0,30,5.66c16.83,0,32.08-4.59,45.29-13.64,12.17-8.33,21.76-22.76,26.31-39.61l1.33-4.91-29.11.39Zm-167.41-81a78.63,78.63,0,0,0-25.72-16.38h0a83.22,83.22,0,0,0-30.84-5.81,88.93,88.93,0,0,0-32.89,6.53,70.83,70.83,0,0,0-27.86,19.72c-7.4,8.62-12.56,17.57-15.33,26.59a88.49,88.49,0,0,0-4.1,25.89,81.48,81.48,0,0,0,6.12,31.49,76.1,76.1,0,0,0,17.19,25.46,77.45,77.45,0,0,0,25.74,16.55,85.66,85.66,0,0,0,62,0,77.45,77.45,0,0,0,25.74-16.55,76,76,0,0,0,17.19-25.46,81.3,81.3,0,0,0,6.13-31.49,80.3,80.3,0,0,0-6.13-31.36A75,75,0,0,0,1056.91,488.22Zm-10.15,77.53a48.46,48.46,0,0,1-10.92,16.63,50.67,50.67,0,0,1-35.49,14.48,53.65,53.65,0,0,1-25.16-6.55,45.41,45.41,0,0,1-19-18.83,55.4,55.4,0,0,1-6.82-26.72c0-9.22,1.86-17.27,5.51-23.94,3.72-6.82,7.82-12.08,12.17-15.63a55.77,55.77,0,0,1,15-8.72,49.58,49.58,0,0,1,18.26-3.23,50.18,50.18,0,0,1,19.23,3.79,51.6,51.6,0,0,1,16.28,10.57,47.33,47.33,0,0,1,10.91,16.31,55,55,0,0,1,3.94,20.85A55.86,55.86,0,0,1,1046.76,565.75Zm-169.17-22.1a66,66,0,0,0-22.25-8.85l-34.62-7.56c-10.23-2.39-14.14-5.16-15.62-7.06a14.31,14.31,0,0,1-3.27-9,19.74,19.74,0,0,1,.22-2.81H772.23c-.13,1.5-.23,3-.23,4.56,0,10.55,3.63,19.41,10.79,26.35,6.91,6.71,16.86,11.45,29.52,14.11l32.89,7.28c7,1.61,12.37,3.87,16,6.71,3.14,2.46,4.66,5.8,4.66,10.24,0,6.11-2.57,10.9-7.84,14.63-5.63,4-13.27,6-22.7,6-10.65,0-19.7-2.38-26.89-7.1S797.52,580,796.76,577l-.73-2.91H766.52l.56,4.33c1.89,14.73,9.19,26.24,21.7,34.22,12.14,7.75,27.19,11.68,44.76,11.68,18.25,0,33.18-4.23,44.4-12.57,11.57-8.58,17.43-20.55,17.43-35.56a40.81,40.81,0,0,0-4-17.52C888.63,552.85,884,547.81,877.59,543.65Z" transform="translate(-138.7 -363.8)"/><path class="cls-1" d="M1253.22,519.8c-2.37-8.17-7.86-23.3-17.94-32.89-8.56-8.15-17.78-13.8-27.45-16.78a90.79,90.79,0,0,0-26.48-4.39A103.66,103.66,0,0,0,1162.4,468a62.45,62.45,0,0,0-14.9,5.08c-2.46,1.17-4.94,2.51-7.43,4a25.34,25.34,0,0,0-1.81,4.41c-4.48,14.74,7.35,26.7,7.58,26.93a43.21,43.21,0,0,1,10.8-8.21,52.11,52.11,0,0,1,24.71-6.39,46.51,46.51,0,0,1,27.09,8.34c7.86,5.48,12.37,10,15.27,19.79l.81,2.75h30.13Zm-381.6-42.35c-10.91-7.82-24.8-11.8-41.29-11.8-11.55,0-21.69,2-30.35,5.89-15.6,18.84,1.72,36.43,2.08,36.79a16.46,16.46,0,0,1,3.7-8.12,20.46,20.46,0,0,1,10.49-6.76,48.92,48.92,0,0,1,13.5-2c9.42,0,17.24,2.2,23.24,6.55,5.6,4.06,9.61,8.69,11,12.72l.9,2.58h28.82l-1.08-4.7C889.72,495.83,882.65,485.36,871.62,477.45Z" transform="translate(-138.7 -363.8)"/><path class="cls-1" d="M306.38,699.17A167.69,167.69,0,1,0,138.7,531.48,167.69,167.69,0,0,0,306.38,699.17ZM203.59,626.06a136.46,136.46,0,0,0,54.88,14.4c2.18.1,4.37.15,6.55.15a135.79,135.79,0,0,0,57.55-12.82,90,90,0,0,0,13.29,40.11A140.22,140.22,0,0,1,203.59,626.06ZM440,572.23c-1.22,4-2.56,7.9-4.14,11.78a138.69,138.69,0,0,1-65.68,71.59,55.36,55.36,0,0,1-6-61.82h0a54.9,54.9,0,0,1,33-26.54A55.66,55.66,0,0,1,412.75,565a55,55,0,0,1,26.46,6.81C439.47,571.92,439.7,572.08,440,572.23ZM306.23,391.33a140.28,140.28,0,0,1,108.55,51.72A136.75,136.75,0,0,0,289.09,430.7a87.72,87.72,0,0,0-12-36.19A138.37,138.37,0,0,1,306.23,391.33ZM176.69,478.56a138.71,138.71,0,0,1,66.41-71.94,55.26,55.26,0,0,1,4.68,60.23h0A55.28,55.28,0,0,1,173,489C174.14,485.5,175.29,482,176.69,478.56Zm22.43,52.2a90.69,90.69,0,0,0,25.55-3.69,89.78,89.78,0,0,0,53.9-43.39,91.53,91.53,0,0,0,4.77-10.39c40.69-28,96.66-21.91,130.45,14.31a108.84,108.84,0,0,1,25.41,46.28A90.41,90.41,0,0,0,333.36,577c-.62,1.13-1.11,2.3-1.68,3.44a101.41,101.41,0,0,1-165.24-51.48c0-1.44.12-2.86.19-4.29A89.48,89.48,0,0,0,199.12,530.76Z" transform="translate(-138.7 -363.8)"/></svg>